<?xml version="1.0" encoding="utf-8"?>
<!-- Generator: Adobe Illustrator 15.1.0, SVG Export Plug-In . SVG Version: 6.00 Build 0)  -->
<!DOCTYPE svg PUBLIC "-//W3C//DTD SVG 1.1//EN" "http://www.w3.org/Graphics/SVG/1.1/DTD/svg11.dtd">
<svg version="1.1" id="Test" xmlns="http://www.w3.org/2000/svg" xmlns:xlink="http://www.w3.org/1999/xlink" x="0px" y="0px"
	 width="800px" height="600px" viewBox="0 0 800 600" style="enable-background:new 0 0 800 600;" xml:space="preserve">
<style type="text/css">
<![CDATA[
	.st0{font-family:'RobotoCondensed-Bold';}
	.st1{fill:none;stroke:#000000;stroke-width:2;stroke-miterlimit:10;stroke-dasharray:1.8475,1.8475;}
	.st2{fill:none;stroke:#000000;stroke-width:2;stroke-miterlimit:10;stroke-dasharray:1.9748,1.9748;}
	.st3{fill:none;stroke:#000000;stroke-width:2;stroke-miterlimit:10;stroke-dasharray:1.9827,1.9827;}
	.st4{fill:#FF6600;stroke:#330000;stroke-width:2;stroke-miterlimit:10;}
	.st5{fill:#FFE0CC;stroke:#000000;stroke-width:2;stroke-miterlimit:10;}
	.st6{fill:#EF3C24;stroke:#330000;stroke-width:2;stroke-miterlimit:10;}
	.st7{fill:none;stroke:#000000;stroke-width:2;stroke-miterlimit:10;stroke-dasharray:2.1083,2.1083;}
	.st8{font-family:'RobotoCondensed-Regular';}
	.st9{fill:none;stroke:#000000;stroke-width:2;stroke-miterlimit:10;stroke-dasharray:1.9823,1.9823;}
	.st10{fill:none;stroke:#000000;stroke-width:2;stroke-miterlimit:10;stroke-dasharray:2.0569,2.0569;}
	.st11{fill:#FFFFFF;}
	.st12{fill:#FF9900;stroke:#330000;stroke-width:2;stroke-miterlimit:10;}
	.st13{fill:#FFFFB3;stroke:#000000;stroke-width:2;stroke-miterlimit:10;}
	.st14{fill:#FFD6CC;stroke:#000000;stroke-width:2;stroke-miterlimit:10;}
	.st15{fill:none;stroke:#000000;stroke-width:2;stroke-miterlimit:10;stroke-dasharray:1.7738,1.7738;}
	.st16{fill:none;stroke:#000000;stroke-width:2;stroke-miterlimit:10;}
	.st17{fill:none;stroke:#000000;stroke-width:2;stroke-miterlimit:10;stroke-dasharray:1.9925,1.9925;}
	.st18{stroke:#000000;stroke-miterlimit:10;}
	.st19{font-size:14;}
	.st20{font-size:16;}
	.st21{fill:#FF3300;stroke:#330000;stroke-width:2;stroke-miterlimit:10;}
	.st22{fill:#FFEBCC;stroke:#000000;stroke-width:2;stroke-miterlimit:10;}
	.st23{fill:#FFFF00;stroke:#330000;stroke-width:2;stroke-miterlimit:10;}
]]>
</style>
<text transform="matrix(1 0 0 1 68.1997 20.8672)" class="st8 st20">Perliminaries</text>
<text transform="matrix(1 0 0 1 296.6211 20.8672)" class="st8 st20">Pre-Seminfinals</text>
<text transform="matrix(1 0 0 1 521.4805 20.8672)" class="st8 st20">Semifinals</text>
<text transform="matrix(1 0 0 1 676.3672 20.8672)" class="st8 st20">Finals</text>
<g>
	<rect x="30.146" y="526.921" class="st13" width="116.999" height="22.693"/>
	<text transform="matrix(1 0 0 1 38.252 542.6445)" class="st8 st19">Efficient Spectrum</text>
	<rect x="147.146" y="526.921" class="st23" width="51.031" height="22.693"/>
	<text transform="matrix(1 0 0 1 152.1772 542.0742)" class="st8 st19">300000</text>
	<rect x="30.146" y="549.614" class="st13" width="116.999" height="22.692"/>
	<text transform="matrix(1 0 0 1 38.252 565.3379)" class="st8 st19">Efficient Spectrum</text>
	<rect x="147.146" y="549.614" class="st23" width="51.031" height="22.692"/>
	<text transform="matrix(1 0 0 1 152.1772 564.7676)" class="st8 st19">300000</text>
	<rect x="30.146" y="572.308" class="st13" width="116.999" height="22.692"/>
	<text transform="matrix(1 0 0 1 38.252 588.0303)" class="st8 st19">Efficient Spectrum</text>
	<rect x="147.146" y="572.308" class="st23" width="51.031" height="22.692"/>
	<text transform="matrix(1 0 0 1 152.1772 587.46)" class="st8 st19">300000</text>
	<rect x="30.146" y="504.747" class="st18" width="77.472" height="22.174"/>
	<text transform="matrix(1 0 0 1 38.252 520.4307)" class="st11 st0 st19">GROUP F</text>
	<text transform="matrix(1 0 0 1 119.252 519.4307)" class="st8 st19">0 / 4</text>
</g>
<g>
	<rect x="30.146" y="431.744" class="st13" width="116.999" height="22.692"/>
	<text transform="matrix(1 0 0 1 38.252 447.4678)" class="st8 st19">Efficient Spectrum</text>
	<rect x="147.146" y="431.744" class="st23" width="51.031" height="22.692"/>
	<text transform="matrix(1 0 0 1 152.1772 446.8975)" class="st8 st19">300000</text>
	<rect x="30.146" y="454.438" class="st13" width="116.999" height="22.693"/>
	<text transform="matrix(1 0 0 1 38.252 470.1602)" class="st8 st19">Efficient Spectrum</text>
	<rect x="147.146" y="454.438" class="st23" width="51.031" height="22.693"/>
	<text transform="matrix(1 0 0 1 152.1772 469.5898)" class="st8 st19">300000</text>
	<rect x="30.146" y="477.131" class="st13" width="116.999" height="22.693"/>
	<text transform="matrix(1 0 0 1 38.252 492.8535)" class="st8 st19">Efficient Spectrum</text>
	<rect x="147.146" y="477.131" class="st23" width="51.031" height="22.693"/>
	<text transform="matrix(1 0 0 1 152.1772 492.2832)" class="st8 st19">300000</text>
	<rect x="30.146" y="409.57" class="st18" width="77.472" height="22.174"/>
	<text transform="matrix(1 0 0 1 38.252 425.2539)" class="st11 st0 st19">GROUP E</text>
	<text transform="matrix(1 0 0 1 119.252 424.2539)" class="st8 st19">0 / 4</text>
</g>
<g>
	<rect x="30.146" y="336.569" class="st13" width="116.999" height="22.692"/>
	<text transform="matrix(1 0 0 1 38.252 352.293)" class="st8 st19">Efficient Spectrum</text>
	<rect x="147.146" y="336.569" class="st23" width="51.031" height="22.692"/>
	<text transform="matrix(1 0 0 1 152.1772 351.7227)" class="st8 st19">300000</text>
	<rect x="30.146" y="359.263" class="st13" width="116.999" height="22.693"/>
	<text transform="matrix(1 0 0 1 38.252 374.9863)" class="st8 st19">Efficient Spectrum</text>
	<rect x="147.146" y="359.263" class="st23" width="51.031" height="22.693"/>
	<text transform="matrix(1 0 0 1 152.1772 374.416)" class="st8 st19">300000</text>
	<rect x="30.146" y="381.956" class="st13" width="116.999" height="22.692"/>
	<text transform="matrix(1 0 0 1 38.252 397.6787)" class="st8 st19">Efficient Spectrum</text>
	<rect x="147.146" y="381.956" class="st23" width="51.031" height="22.692"/>
	<text transform="matrix(1 0 0 1 152.1772 397.1084)" class="st8 st19">300000</text>
	<rect x="30.146" y="314.396" class="st18" width="77.472" height="22.174"/>
	<text transform="matrix(1 0 0 1 38.252 330.0791)" class="st11 st0 st19">GROUP D</text>
	<text transform="matrix(1 0 0 1 119.252 329.0791)" class="st8 st19">0 / 4</text>
</g>
<g>
	<rect x="30.146" y="241.394" class="st13" width="116.999" height="22.693"/>
	<text transform="matrix(1 0 0 1 38.252 257.1172)" class="st8 st19">Efficient Spectrum</text>
	<rect x="147.146" y="241.394" class="st23" width="51.031" height="22.693"/>
	<text transform="matrix(1 0 0 1 152.1772 256.5469)" class="st8 st19">300000</text>
	<rect x="30.146" y="264.087" class="st13" width="116.999" height="22.693"/>
	<text transform="matrix(1 0 0 1 38.252 279.8105)" class="st8 st19">Efficient Spectrum</text>
	<rect x="147.146" y="264.087" class="st23" width="51.031" height="22.693"/>
	<text transform="matrix(1 0 0 1 152.1772 279.2393)" class="st8 st19">300000</text>
	<rect x="30.146" y="286.78" class="st13" width="116.999" height="22.691"/>
	<text transform="matrix(1 0 0 1 38.252 302.5029)" class="st8 st19">Efficient Spectrum</text>
	<rect x="147.146" y="286.78" class="st23" width="51.031" height="22.691"/>
	<text transform="matrix(1 0 0 1 152.1772 301.9326)" class="st8 st19">300000</text>
	<rect x="30.146" y="219.219" class="st18" width="77.472" height="22.174"/>
	<text transform="matrix(1 0 0 1 38.252 234.9033)" class="st11 st0 st19">GROUP C</text>
	<text transform="matrix(1 0 0 1 119.252 233.9033)" class="st8 st19">0 / 4</text>
</g>
<g id="group_a">
	<rect x="30.146" y="51.042" class="st13" width="117" height="22.693"/>
	<text id="group_a_team1" transform="matrix(1 0 0 1 38.252 66.7646)" class="st8 st19">Efficient Spectrum</text>
	<rect x="147.146" y="51.042" class="st23" width="51.031" height="22.693"/>
	<text id="group_a_score1" transform="matrix(1 0 0 1 152.1772 66.1934)" class="st8 st19">300000</text>
	<rect x="30.146" y="73.734" class="st13" width="117" height="22.693"/>
	<text id="group_a_team2" transform="matrix(1 0 0 1 38.252 89.457)" class="st8 st19">Efficient Spectrum</text>
	<rect x="147.146" y="73.734" class="st23" width="51.031" height="22.693"/>
	<text id="group_a_score2" transform="matrix(1 0 0 1 152.1772 88.8867)" class="st8 st19">300000</text>
	<rect x="30.146" y="96.427" class="st13" width="117" height="22.693"/>
	<text id="group_a_team3" transform="matrix(1 0 0 1 38.252 112.1504)" class="st8 st19">Efficient Spectrum</text>
	<rect x="147.146" y="96.427" class="st23" width="51.031" height="22.693"/>
	<text id="group_a_score3" transform="matrix(1 0 0 1 152.1772 111.5801)" class="st8 st19">300000</text>
	<rect x="30.146" y="28.867" class="st18" width="77.472" height="22.174"/>
	<text transform="matrix(1 0 0 1 38.252 44.5508)" class="st11 st0 st19">GROUP A</text>
	<text transform="matrix(1 0 0 1 119.252 43.5508)" class="st8 st19">0 / 4</text>
</g>
<g>
	<rect x="30.146" y="146.217" class="st13" width="116.999" height="22.693"/>
	<text transform="matrix(1 0 0 1 38.252 161.9404)" class="st8 st19">Efficient Spectrum</text>
	<rect x="147.146" y="146.217" class="st23" width="51.031" height="22.693"/>
	<text transform="matrix(1 0 0 1 152.1772 161.3701)" class="st8 st19">300000</text>
	<rect x="30.146" y="168.91" class="st13" width="116.999" height="22.693"/>
	<text transform="matrix(1 0 0 1 38.252 184.6328)" class="st8 st19">Efficient Spectrum</text>
	<rect x="147.146" y="168.91" class="st23" width="51.031" height="22.693"/>
	<text transform="matrix(1 0 0 1 152.1772 184.0625)" class="st8 st19">300000</text>
	<rect x="30.146" y="191.604" class="st13" width="116.999" height="22.692"/>
	<text transform="matrix(1 0 0 1 38.252 207.3262)" class="st8 st19">Efficient Spectrum</text>
	<rect x="147.146" y="191.604" class="st23" width="51.031" height="22.692"/>
	<text transform="matrix(1 0 0 1 152.1772 206.7559)" class="st8 st19">300000</text>
	<rect x="30.146" y="124.043" class="st18" width="77.472" height="22.174"/>
	<text transform="matrix(1 0 0 1 38.252 139.7266)" class="st11 st0 st19">GROUP B</text>
	<text transform="matrix(1 0 0 1 119.252 138.7266)" class="st8 st19">0 / 4</text>
</g>
<g>
	<rect x="261.828" y="191.344" class="st22" width="117" height="22.693"/>
	<text transform="matrix(1 0 0 1 269.9336 207.0664)" class="st8 st19">Efficient Spectrum</text>
	<rect x="378.828" y="191.344" class="st12" width="51.031" height="22.693"/>
	<text transform="matrix(1 0 0 1 383.8589 206.4961)" class="st8 st19">300000</text>
	<rect x="261.828" y="214.037" class="st22" width="117" height="22.693"/>
	<text transform="matrix(1 0 0 1 269.9336 229.7598)" class="st8 st19">Efficient Spectrum</text>
	<rect x="378.828" y="214.037" class="st12" width="51.031" height="22.693"/>
	<text transform="matrix(1 0 0 1 383.8589 229.1895)" class="st8 st19">300000</text>
	<rect x="261.828" y="236.729" class="st22" width="117" height="22.692"/>
	<text transform="matrix(1 0 0 1 269.9336 252.4521)" class="st8 st19">Efficient Spectrum</text>
	<rect x="378.828" y="236.729" class="st12" width="51.031" height="22.692"/>
	<text transform="matrix(1 0 0 1 383.8589 251.8818)" class="st8 st19">300000</text>
	<rect x="261.828" y="169.169" class="st18" width="77.473" height="22.174"/>
	<text transform="matrix(1 0 0 1 263.9336 184.8525)" class="st11 st0 st19">GROUP ABC2</text>
	<text transform="matrix(1 0 0 1 350.9336 183.8525)" class="st8 st19">0 / 4</text>
</g>
<g>
	<rect x="260.146" y="392.791" class="st22" width="117" height="22.693"/>
	<text transform="matrix(1 0 0 1 268.252 408.5137)" class="st8 st19">Efficient Spectrum</text>
	<rect x="377.146" y="392.791" class="st12" width="51.031" height="22.693"/>
	<text transform="matrix(1 0 0 1 382.1772 407.9434)" class="st8 st19">300000</text>
	<rect x="260.146" y="415.484" class="st22" width="117" height="22.692"/>
	<text transform="matrix(1 0 0 1 268.252 431.207)" class="st8 st19">Efficient Spectrum</text>
	<rect x="377.146" y="415.484" class="st12" width="51.031" height="22.692"/>
	<text transform="matrix(1 0 0 1 382.1772 430.6367)" class="st8 st19">300000</text>
	<rect x="260.146" y="438.178" class="st22" width="117" height="22.692"/>
	<text transform="matrix(1 0 0 1 268.252 453.9004)" class="st8 st19">Efficient Spectrum</text>
	<rect x="377.146" y="438.178" class="st12" width="51.031" height="22.692"/>
	<text transform="matrix(1 0 0 1 382.1772 453.3301)" class="st8 st19">300000</text>
	<rect x="260.146" y="370.617" class="st18" width="77.472" height="22.174"/>
	<text transform="matrix(1 0 0 1 262.252 386.2998)" class="st11 st0 st19">GROUP DEF2</text>
	<text transform="matrix(1 0 0 1 349.252 385.2998)" class="st8 st19">0 / 4</text>
</g>
<g>
	<rect x="470.012" y="85.16" class="st5" width="117" height="22.693"/>
	<text transform="matrix(1 0 0 1 478.1172 100.8818)" class="st8 st19">Efficient Spectrum</text>
	<rect x="587.012" y="85.16" class="st4" width="51.031" height="22.693"/>
	<text transform="matrix(1 0 0 1 592.043 100.3125)" class="st8 st19">300000</text>
	<rect x="470.012" y="107.853" class="st5" width="117" height="22.693"/>
	<text transform="matrix(1 0 0 1 478.1172 123.5752)" class="st8 st19">Efficient Spectrum</text>
	<rect x="587.012" y="107.853" class="st4" width="51.031" height="22.693"/>
	<text transform="matrix(1 0 0 1 592.043 123.0049)" class="st8 st19">300000</text>
	<rect x="470.012" y="130.546" class="st5" width="117" height="22.692"/>
	<text transform="matrix(1 0 0 1 478.1172 146.2686)" class="st8 st19">Efficient Spectrum</text>
	<rect x="587.012" y="130.546" class="st4" width="51.031" height="22.692"/>
	<text transform="matrix(1 0 0 1 592.043 145.6982)" class="st8 st19">300000</text>
	<text transform="matrix(1 0 0 1 559.1172 77.6689)" class="st8 st19">0 / 6</text>
	<rect x="470.012" y="152.979" class="st5" width="117" height="22.692"/>
	<text transform="matrix(1 0 0 1 478.1172 168.7021)" class="st8 st19">Efficient Spectrum</text>
	<rect x="587.012" y="152.979" class="st4" width="51.031" height="22.692"/>
	<text transform="matrix(1 0 0 1 592.043 168.1309)" class="st8 st19">300000</text>
	<rect x="470.012" y="62.568" class="st18" width="77.473" height="22.175"/>
	<text transform="matrix(1 0 0 1 478.1172 78.252)" class="st11 st0 st19">GROUP G</text>
</g>
<g>
	<rect x="470.012" y="495.518" class="st5" width="117" height="22.692"/>
	<text transform="matrix(1 0 0 1 478.1172 511.2402)" class="st8 st19">Efficient Spectrum</text>
	<rect x="587.012" y="495.518" class="st4" width="51.031" height="22.692"/>
	<text transform="matrix(1 0 0 1 592.043 510.6699)" class="st8 st19">300000</text>
	<rect x="470.012" y="518.21" class="st5" width="117" height="22.693"/>
	<text transform="matrix(1 0 0 1 478.1172 533.9336)" class="st8 st19">Efficient Spectrum</text>
	<rect x="587.012" y="518.21" class="st4" width="51.031" height="22.693"/>
	<text transform="matrix(1 0 0 1 592.043 533.3633)" class="st8 st19">300000</text>
	<rect x="470.012" y="540.903" class="st5" width="117" height="22.691"/>
	<text transform="matrix(1 0 0 1 478.1172 556.626)" class="st8 st19">Efficient Spectrum</text>
	<rect x="587.012" y="540.903" class="st4" width="51.031" height="22.691"/>
	<text transform="matrix(1 0 0 1 592.043 556.0557)" class="st8 st19">300000</text>
	<text transform="matrix(1 0 0 1 559.1172 488.0264)" class="st8 st19">0 / 6</text>
	<rect x="470.012" y="563.337" class="st5" width="117" height="22.692"/>
	<text transform="matrix(1 0 0 1 478.1172 579.0596)" class="st8 st19">Efficient Spectrum</text>
	<rect x="587.012" y="563.337" class="st4" width="51.031" height="22.692"/>
	<text transform="matrix(1 0 0 1 592.043 578.4893)" class="st8 st19">300000</text>
	<rect x="470.012" y="472.926" class="st18" width="77.473" height="22.175"/>
	<text transform="matrix(1 0 0 1 478.1172 488.6104)" class="st11 st0 st19">GROUP H</text>
</g>
<g>
	<g>
		<g>
			<line class="st16" x1="237.5" y1="73.656" x2="457.608" y2="73.656"/>
			<g>
				<polygon points="454.835,77.552 470.012,73.488 454.835,69.417 				"/>
			</g>
		</g>
	</g>
	<line class="st16" x1="198.178" y1="157.563" x2="237.5" y2="157.563"/>
	<polyline class="st16" points="198.178,62.388 237.5,62.388 237.5,252.74 198.178,252.74 	"/>
</g>
<g>
	<g>
		<g>
			<line class="st16" x1="217.462" y1="180.257" x2="218.462" y2="180.257"/>
			<line class="st2" x1="220.437" y1="180.257" x2="243.147" y2="180.257"/>
			<line class="st16" x1="244.134" y1="180.257" x2="245.134" y2="180.257"/>
			<g>
				<polygon points="242.36,184.154 257.538,180.089 242.36,176.019 				"/>
			</g>
		</g>
	</g>
	<g>
		<g>
			<line class="st16" x1="198.178" y1="180.257" x2="199.178" y2="180.257"/>
			<line class="st1" x1="201.025" y1="180.257" x2="218.576" y2="180.257"/>
			<line class="st16" x1="219.5" y1="180.257" x2="220.5" y2="180.257"/>
		</g>
	</g>
	<g>
		<g>
			<line class="st16" x1="198.177" y1="85.081" x2="199.177" y2="85.081"/>
			<line class="st1" x1="201.025" y1="85.081" x2="218.576" y2="85.081"/>
			<polyline class="st16" points="219.5,85.081 220.5,85.081 220.5,86.081 			"/>
			<line class="st3" x1="220.5" y1="88.063" x2="220.5" y2="273.442"/>
			<polyline class="st16" points="220.5,274.434 220.5,275.434 219.5,275.434 			"/>
			<line class="st1" x1="217.652" y1="275.434" x2="200.102" y2="275.434"/>
			<line class="st16" x1="199.178" y1="275.434" x2="198.178" y2="275.434"/>
		</g>
	</g>
</g>
<g>
	<g>
		<rect x="615.027" y="283.229" class="st18" width="77.473" height="22.173"/>
		<text transform="matrix(1 0 0 1 625.1328 298.9121)" class="st11 st0 st19">FINALS</text>
	</g>
	<rect x="615.027" y="307.633" class="st14" width="117" height="22.693"/>
	<text transform="matrix(1 0 0 1 623.1328 323.3555)" class="st8 st19">Efficient Spectrum</text>
	<rect x="732.027" y="307.633" class="st21" width="51.029" height="22.693"/>
	<text transform="matrix(1 0 0 1 737.0586 322.7852)" class="st8 st19">300000</text>
	<rect x="615.027" y="330.326" class="st14" width="117" height="22.691"/>
	<text transform="matrix(1 0 0 1 623.1328 346.0488)" class="st8 st19">Efficient Spectrum</text>
	<rect x="732.027" y="330.326" class="st6" width="51.029" height="22.691"/>
	<text transform="matrix(1 0 0 1 737.0586 345.4785)" class="st8 st19">300000</text>
	<text transform="matrix(1 0 0 1 703.0273 298.4082)" class="st8 st19">0 / 1</text>
</g>
<g>
	<g>
		<line class="st16" x1="431.851" y1="202.69" x2="432.851" y2="202.695"/>
		<line class="st9" x1="434.833" y1="202.704" x2="489.345" y2="202.941"/>
		<polyline class="st16" points="490.336,202.945 491.336,202.95 491.36,201.95 		"/>
		<line class="st15" x1="491.404" y1="200.177" x2="491.646" y2="190.424"/>
		<line class="st16" x1="491.667" y1="189.537" x2="491.691" y2="188.538"/>
		<g>
			<polygon points="495.519,191.407 491.83,176.134 487.387,191.206 			"/>
		</g>
	</g>
</g>
<g>
	<g>
		<line class="st16" x1="237.233" y1="484.014" x2="457.341" y2="484.014"/>
		<g>
			<polygon points="454.567,487.91 469.744,483.846 454.567,479.775 			"/>
		</g>
	</g>
</g>
<line class="st16" x1="197.911" y1="443.091" x2="237.233" y2="443.091"/>
<polyline class="st16" points="197.911,538.267 237.233,538.267 237.233,347.914 197.911,347.914 "/>
<g>
	<g>
		<line class="st16" x1="221.222" y1="381.3" x2="222.222" y2="381.3"/>
		<line class="st7" x1="224.33" y1="381.3" x2="244.359" y2="381.3"/>
		<line class="st16" x1="245.413" y1="381.3" x2="246.413" y2="381.3"/>
		<g>
			<polygon points="243.639,385.196 258.816,381.132 243.639,377.062 			"/>
		</g>
	</g>
</g>
<g>
	<g>
		<line class="st16" x1="198.178" y1="465.783" x2="199.178" y2="465.783"/>
		<line class="st1" x1="201.025" y1="465.783" x2="218.576" y2="465.783"/>
		<line class="st16" x1="219.5" y1="465.783" x2="220.5" y2="465.783"/>
	</g>
</g>
<g>
	<g>
		<line class="st16" x1="198.178" y1="370.607" x2="199.178" y2="370.607"/>
		<line class="st1" x1="201.025" y1="370.607" x2="218.576" y2="370.607"/>
		<polyline class="st16" points="219.5,370.607 220.5,370.607 220.5,371.607 		"/>
		<line class="st3" x1="220.5" y1="373.59" x2="220.5" y2="558.969"/>
		<polyline class="st16" points="220.5,559.96 220.5,560.96 219.5,560.96 		"/>
		<line class="st1" x1="217.652" y1="560.96" x2="200.102" y2="560.96"/>
		<line class="st16" x1="199.178" y1="560.96" x2="198.178" y2="560.96"/>
	</g>
</g>
<g>
	<g>
		<line class="st16" x1="429.688" y1="404.725" x2="430.688" y2="404.725"/>
		<line class="st10" x1="432.743" y1="404.725" x2="489.308" y2="404.725"/>
		<polyline class="st16" points="490.336,404.725 491.336,404.725 491.336,405.725 		"/>
		<line class="st17" x1="491.336" y1="407.717" x2="491.336" y2="458.526"/>
		<line class="st16" x1="491.336" y1="459.522" x2="491.336" y2="460.522"/>
		<g>
			<polygon points="487.439,457.749 491.504,472.926 495.574,457.749 			"/>
		</g>
	</g>
</g>
<g>
	<g>
		<polyline class="st16" points="638.043,96.427 698.5,96.427 698.5,258.684 		"/>
		<g>
			<polygon points="694.604,255.91 698.668,271.087 702.738,255.91 			"/>
		</g>
	</g>
</g>
<g>
	<g>
		<polyline class="st16" points="638.043,507.986 698.5,507.986 698.5,375.73 		"/>
		<g>
			<polygon points="702.396,378.504 698.332,363.327 694.262,378.504 			"/>
		</g>
	</g>
</g>
</svg>
