<?xml version="1.0" encoding="UTF-8" standalone="no"?>
<!-- Generator: Adobe Illustrator 15.1.0, SVG Export Plug-In . SVG Version: 6.00 Build 0)  -->

<svg
   xmlns:xhtml="http://www.w3.org/1999/xhtml"
   xmlns:svg="http://www.w3.org/2000/svg"
   xmlns="http://www.w3.org/2000/svg"
   version="1.1"
   id="comp-svg"
   x="0px"
   y="0px"
   width="800px"
   height="600px"
   viewBox="0 0 800 600"
   style="enable-background:new 0 0 800 600;"
   xml:space="preserve">

<xhtml:link
   href="http://fonts.googleapis.com/css?family=Roboto+Condensed:400,700,300"
   rel="stylesheet"
   type="text/css" />

<style type="text/css">

    .stage{font-family:'Roboto Condensed'; font-weight: 400; font-size:16px;}
    .group{font-family:'Roboto Condensed'; font-weight: 700; fill:#FFFFFF; font-size:14px;}
    .group-box{stroke:#000000; fill:#000000;}
    .progress{font-family:'Roboto Condensed';font-size:14px; font-weight:300;}
    .score{font-family:'Roboto Condensed';font-size:14px; font-weight:400; text-align:end; text-anchor:end;}
    .team{font-family:'Roboto Condensed';font-size:14px; font-weight:400;}
    .team-box-preliminaries{fill:#ffffb3;stroke:#000000;stroke-width:2;}
    .score-box-preliminaries{fill:#ffff00;stroke:#000000;stroke-width:2;}
    .team-box-presemifinals{fill:#ffebcc;stroke:#000000;stroke-width:2;}
    .score-box-presemifinals{fill:#ff9900;stroke:#000000;stroke-width:2;}
    .team-box-semifinals{fill:#ffe0cc;stroke:#000000;stroke-width:2;}
    .score-box-semifinals{fill:#ff6600;stroke:#000000;stroke-width:2;}
    .team-box-finals{fill:#ffd6cc;stroke:#000000;stroke-width:2;}
    .score-box-finals{fill:#ff3300;stroke:#000000;stroke-width:2;}
    .flow-solid{fill:none;stroke:#000000;stroke-width:2;}
    





	.st2{fill:none;stroke:#000000;stroke-width:2;stroke-miterlimit:10;stroke-dasharray:1.9748,1.9748;}
	.st3{fill:none;stroke:#000000;stroke-width:2;stroke-miterlimit:10;stroke-dasharray:1.9827,1.9827;}
	.st4{fill:#FF6600;stroke:#330000;stroke-width:2;stroke-miterlimit:10;}
	.st5{fill:#FFE0CC;stroke:#000000;stroke-width:2;stroke-miterlimit:10;}
	.st6{fill:#EF3C24;stroke:#330000;stroke-width:2;stroke-miterlimit:10;}
	.st7{fill:none;stroke:#000000;stroke-width:2;stroke-miterlimit:10;stroke-dasharray:2.1083,2.1083;}
	
	.st9{fill:none;stroke:#000000;stroke-width:2;stroke-miterlimit:10;stroke-dasharray:1.9823,1.9823;}
	.st10{fill:none;stroke:#000000;stroke-width:2;stroke-miterlimit:10;stroke-dasharray:2.0569,2.0569;}
	.st12{fill:#FF9900;stroke:#330000;stroke-width:2;stroke-miterlimit:10;}
	.st13{fill:#FFFFB3;stroke:#000000;stroke-width:2;stroke-miterlimit:10;}
	.st14{fill:#FFD6CC;stroke:#000000;stroke-width:2;stroke-miterlimit:10;}
	.st15{fill:none;stroke:#000000;stroke-width:2;stroke-miterlimit:10;stroke-dasharray:1.7738,1.7738;}
	.st16{fill:none;stroke:#000000;stroke-width:2;stroke-miterlimit:10;}
	.st17{fill:none;stroke:#000000;stroke-width:2;stroke-miterlimit:10;stroke-dasharray:1.9925,1.9925;}
	.st18{stroke:#000000;stroke-miterlimit:10;}
	.st21{fill:#FF3300;stroke:#330000;stroke-width:2;stroke-miterlimit:10;}
	.st22{fill:#FFEBCC;stroke:#000000;stroke-width:2;stroke-miterlimit:10;}
	.st23{fill:#FFFF00;stroke:#330000;stroke-width:2;stroke-miterlimit:10;}
</style>

<text x="68" y="20" class="stage">Perliminaries</text>
<text x="296" y="20" class="stage">Pre-Seminfinals</text>
<text x="521" y="20" class="stage">Semifinals</text>
<text x="676" y="20" class="stage">Finals</text>

<g id="group_a" transform="translate(0, 0)">
    <rect x="30" y="39" width="78" height="22" class="group-box"  />
        <text x="38" y="55" class="group">GROUP A</text>
        <text id="group_a_progress" x="120" y="55" class="progress">0 / 4</text>

    <rect x="30" y="61" width="118" height="22" class="team-box-preliminaries" />
        <text id="group_a_team1" x="38" y="77" class="team">Efficient Spectrum</text>
    <rect x="148" y="61" width="52" height="22" class="score-box-preliminaries" />
        <text id="group_a_score1" x="192" y="77" class="score">0</text>

    <rect x="30" y="83" width="118" height="22"  class="team-box-preliminaries" />
        <text id="group_a_team2" x="38" y="99" class="team">Efficient Spectrum</text>
    <rect x="148" y="83" width="52" height="22" class="score-box-preliminaries" />
        <text id="group_a_score2" x="192" y="99" class="score">0</text>

    <rect x="30" y="105" width="118" height="22"  class="team-box-preliminaries" />
        <text id="group_a_team3" x="38" y="121" class="team">Efficient Spectrum</text>
    <rect x="148" y="105" width="52" height="22" class="score-box-preliminaries" />
        <text id="group_a_score3" x="192" y="121" class="score">0</text>
</g>

<g id="group_b" transform="translate(0, 93)">
    <rect x="30" y="39" width="78" height="22" class="group-box"  />
        <text x="38" y="55" class="group">GROUP B</text>
        <text id="group_b_progress" x="120" y="55" class="progress">0 / 4</text>

    <rect x="30" y="61" width="118" height="22" class="team-box-preliminaries" />
        <text id="group_b_team1" x="38" y="77" class="team">Efficient Spectrum</text>
    <rect x="148" y="61" width="52" height="22" class="score-box-preliminaries" />
        <text id="group_b_score1" x="192" y="77" class="score">0</text>

    <rect x="30" y="83" width="118" height="22"  class="team-box-preliminaries" />
        <text id="group_b_team2" x="38" y="99" class="team">Efficient Spectrum</text>
    <rect x="148" y="83" width="52" height="22" class="score-box-preliminaries" />
        <text id="group_b_score2" x="192" y="99" class="score">0</text>

    <rect x="30" y="105" width="118" height="22"  class="team-box-preliminaries" />
        <text id="group_b_team3" x="38" y="121" class="team">Efficient Spectrum</text>
    <rect x="148" y="105" width="52" height="22" class="score-box-preliminaries" />
        <text id="group_b_score3" x="192" y="121" class="score">0</text>
</g>

<g id="group_c" transform="translate(0, 186)">
    <rect x="30" y="39" width="78" height="22" class="group-box"  />
        <text x="38" y="55" class="group">GROUP C</text>
        <text id="group_c_progress" x="120" y="55" class="progress">0 / 4</text>

    <rect x="30" y="61" width="118" height="22" class="team-box-preliminaries" />
        <text id="group_c_team1" x="38" y="77" class="team">Efficient Spectrum</text>
    <rect x="148" y="61" width="52" height="22" class="score-box-preliminaries" />
        <text id="group_c_score1" x="192" y="77" class="score">0</text>

    <rect x="30" y="83" width="118" height="22"  class="team-box-preliminaries" />
        <text id="group_c_team2" x="38" y="99" class="team">Efficient Spectrum</text>
    <rect x="148" y="83" width="52" height="22" class="score-box-preliminaries" />
        <text id="group_c_score2" x="192" y="99" class="score">0</text>

    <rect x="30" y="105" width="118" height="22"  class="team-box-preliminaries" />
        <text id="group_c_team3" x="38" y="121" class="team">Efficient Spectrum</text>
    <rect x="148" y="105" width="52" height="22" class="score-box-preliminaries" />
        <text id="group_c_score3" x="192" y="121" class="score">0</text>
</g>

<g id="group_d" transform="translate(0, 279)">
    <rect x="30" y="39" width="78" height="22" class="group-box"  />
        <text x="38" y="55" class="group">GROUP D</text>
        <text id="group_d_progress" x="120" y="55" class="progress">0 / 4</text>

    <rect x="30" y="61" width="118" height="22" class="team-box-preliminaries" />
        <text id="group_d_team1" x="38" y="77" class="team">Efficient Spectrum</text>
    <rect x="148" y="61" width="52" height="22" class="score-box-preliminaries" />
        <text id="group_d_score1" x="192" y="77" class="score">0</text>

    <rect x="30" y="83" width="118" height="22"  class="team-box-preliminaries" />
        <text id="group_d_team2" x="38" y="99" class="team">Efficient Spectrum</text>
    <rect x="148" y="83" width="52" height="22" class="score-box-preliminaries" />
        <text id="group_d_score2" x="192" y="99" class="score">0</text>

    <rect x="30" y="105" width="118" height="22"  class="team-box-preliminaries" />
        <text id="group_d_team3" x="38" y="121" class="team">Efficient Spectrum</text>
    <rect x="148" y="105" width="52" height="22" class="score-box-preliminaries" />
        <text id="group_d_score3" x="192" y="121" class="score">0</text>
</g>

<g id="group_e" transform="translate(0, 372)">
    <rect x="30" y="39" width="78" height="22" class="group-box"  />
        <text x="38" y="55" class="group">GROUP E</text>
        <text id="group_e_progress" x="120" y="55" class="progress">0 / 4</text>

    <rect x="30" y="61" width="118" height="22" class="team-box-preliminaries" />
        <text id="group_e_team1" x="38" y="77" class="team">Efficient Spectrum</text>
    <rect x="148" y="61" width="52" height="22" class="score-box-preliminaries" />
        <text id="group_e_score1" x="192" y="77" class="score">0</text>

    <rect x="30" y="83" width="118" height="22"  class="team-box-preliminaries" />
        <text id="group_e_team2" x="38" y="99" class="team">Efficient Spectrum</text>
    <rect x="148" y="83" width="52" height="22" class="score-box-preliminaries" />
        <text id="group_e_score2" x="192" y="99" class="score">0</text>

    <rect x="30" y="105" width="118" height="22"  class="team-box-preliminaries" />
        <text id="group_e_team3" x="38" y="121" class="team">Efficient Spectrum</text>
    <rect x="148" y="105" width="52" height="22" class="score-box-preliminaries" />
        <text id="group_e_score3" x="192" y="121" class="score">0</text>
</g>

<g id="group_f" transform="translate(0, 465)">
    <rect x="30" y="39" width="78" height="22" class="group-box"  />
        <text x="38" y="55" class="group">GROUP F</text>
        <text id="group_f_progress" x="120" y="55" class="progress">0 / 4</text>

    <rect x="30" y="61" width="118" height="22" class="team-box-preliminaries" />
        <text id="group_f_team1" x="38" y="77" class="team">Efficient Spectrum</text>
    <rect x="148" y="61" width="52" height="22" class="score-box-preliminaries" />
        <text id="group_f_score1" x="192" y="77" class="score">0</text>

    <rect x="30" y="83" width="118" height="22"  class="team-box-preliminaries" />
        <text id="group_f_team2" x="38" y="99" class="team">Efficient Spectrum</text>
    <rect x="148" y="83" width="52" height="22" class="score-box-preliminaries" />
        <text id="group_f_score2" x="192" y="99" class="score">0</text>

    <rect x="30" y="105" width="118" height="22"  class="team-box-preliminaries" />
        <text id="group_f_team3" x="38" y="121" class="team">Efficient Spectrum</text>
    <rect x="148" y="105" width="52" height="22" class="score-box-preliminaries" />
        <text id="group_f_score3" x="192" y="121" class="score">0</text>
</g>



<g id="group_abc2" transform="translate(232, 130)">
    <rect x="30" y="39" width="78" height="22" class="group-box"  />
        <text x="32" y="55" class="group">GROUP ABC2</text>
        <text id="group_abc2_progress" x="120" y="55" class="progress">0 / 4</text>

    <rect x="30" y="61" width="118" height="22" class="team-box-presemifinals" />
        <text id="group_abc2_team1" x="38" y="77" class="team">Efficient Spectrum</text>
    <rect x="148" y="61" width="52" height="22" class="score-box-presemifinals" />
        <text id="group_abc2_score1" x="192" y="77" class="score">0</text>

    <rect x="30" y="83" width="118" height="22"  class="team-box-presemifinals" />
        <text id="group_abc2_team2" x="38" y="99" class="team">Efficient Spectrum</text>
    <rect x="148" y="83" width="52" height="22" class="score-box-presemifinals" />
        <text id="group_abc2_score2" x="192" y="99" class="score">0</text>

    <rect x="30" y="105" width="118" height="22"  class="team-box-presemifinals" />
        <text id="group_abc2_team3" x="38" y="121" class="team">Efficient Spectrum</text>
    <rect x="148" y="105" width="52" height="22" class="score-box-presemifinals" />
        <text id="group_abc2_score3" x="192" y="121" class="score">0</text>
</g>

<g id="group_def2" transform="translate(232, 331)">
    <rect x="30" y="39" width="78" height="22" class="group-box"  />
        <text x="32" y="55" class="group">GROUP DEF2</text>
        <text id="group_def2_progress" x="120" y="55" class="progress">0 / 4</text>

    <rect x="30" y="61" width="118" height="22" class="team-box-presemifinals" />
        <text id="group_def2_team1" x="38" y="77" class="team">Efficient Spectrum</text>
    <rect x="148" y="61" width="52" height="22" class="score-box-presemifinals" />
        <text id="group_def2_score1" x="192" y="77" class="score">0</text>

    <rect x="30" y="83" width="118" height="22"  class="team-box-presemifinals" />
        <text id="group_def2_team2" x="38" y="99" class="team">Efficient Spectrum</text>
    <rect x="148" y="83" width="52" height="22" class="score-box-presemifinals" />
        <text id="group_def2_score2" x="192" y="99" class="score">0</text>

    <rect x="30" y="105" width="118" height="22"  class="team-box-presemifinals" />
        <text id="group_def2_team3" x="38" y="121" class="team">Efficient Spectrum</text>
    <rect x="148" y="105" width="52" height="22" class="score-box-presemifinals" />
        <text id="group_def2_score3" x="192" y="121" class="score">0</text>
</g>

<g id="group_g" transform="translate(440, 24)">
    <rect x="30" y="39" width="78" height="22" class="group-box"  />
        <text x="38" y="55" class="group">GROUP G</text>
        <text id="group_g_progress" x="120" y="55" class="progress">0 / 6</text>

    <rect x="30" y="61" width="118" height="22" class="team-box-semifinals" />
        <text id="group_g_team1" x="38" y="77" class="team">Efficient Spectrum</text>
    <rect x="148" y="61" width="52" height="22" class="score-box-semifinals" />
        <text id="group_g_score1" x="192" y="77" class="score">0</text>

    <rect x="30" y="83" width="118" height="22"  class="team-box-semifinals" />
        <text id="group_g_team2" x="38" y="99" class="team">Efficient Spectrum</text>
    <rect x="148" y="83" width="52" height="22" class="score-box-semifinals" />
        <text id="group_g_score2" x="192" y="99" class="score">0</text>

    <rect x="30" y="105" width="118" height="22"  class="team-box-semifinals" />
        <text id="group_g_team3" x="38" y="121" class="team">Efficient Spectrum</text>
    <rect x="148" y="105" width="52" height="22" class="score-box-semifinals" />
        <text id="group_g_score3" x="192" y="121" class="score">0</text>

    <rect x="30" y="127" width="118" height="22"  class="team-box-semifinals" />
        <text id="group_g_team4" x="38" y="143" class="team">Efficient Spectrum</text>
    <rect x="148" y="127" width="52" height="22" class="score-box-semifinals" />
        <text id="group_g_score4" x="192" y="143" class="score">0</text>
</g>

<g id="group_h" transform="translate(440, 435)">
    <rect x="30" y="39" width="78" height="22" class="group-box"  />
        <text x="38" y="55" class="group">GROUP H</text>
        <text id="group_h_progress" x="120" y="55" class="progress">0 / 6</text>

    <rect x="30" y="61" width="118" height="22" class="team-box-semifinals" />
        <text id="group_h_team1" x="38" y="77" class="team">Efficient Spectrum</text>
    <rect x="148" y="61" width="52" height="22" class="score-box-semifinals" />
        <text id="group_h_score1" x="192" y="77" class="score">0</text>

    <rect x="30" y="83" width="118" height="22"  class="team-box-semifinals" />
        <text id="group_h_team2" x="38" y="99" class="team">Efficient Spectrum</text>
    <rect x="148" y="83" width="52" height="22" class="score-box-semifinals" />
        <text id="group_h_score2" x="192" y="99" class="score">0</text>

    <rect x="30" y="105" width="118" height="22"  class="team-box-semifinals" />
        <text id="group_h_team3" x="38" y="121" class="team">Efficient Spectrum</text>
    <rect x="148" y="105" width="52" height="22" class="score-box-semifinals" />
        <text id="group_h_score3" x="192" y="121" class="score">0</text>

    <rect x="30" y="127" width="118" height="22"  class="team-box-semifinals" />
        <text id="group_h_team4" x="38" y="143" class="team">Efficient Spectrum</text>
    <rect x="148" y="127" width="52" height="22" class="score-box-semifinals" />
        <text id="group_h_score4" x="192" y="143" class="score">0</text>
</g>


<g id="group_finals" transform="translate(585, 247)">
    <rect x="30" y="39" width="78" height="22" class="group-box"  />
        <text x="38" y="55" class="group">FINALS</text>
        <text id="group_finals_progress" x="120" y="55" class="progress">0 / 1</text>

    <rect x="30" y="61" width="118" height="22" class="team-box-finals" />
        <text id="group_finals_team1" x="38" y="77" class="team">Efficient Spectrum</text>
    <rect x="148" y="61" width="52" height="22" class="score-box-finals" />
        <text id="group_finals_score1" x="192" y="77" class="score">0</text>

    <rect x="30" y="83" width="118" height="22"  class="team-box-finals" />
        <text id="group_finals_team2" x="38" y="99" class="team">Efficient Spectrum</text>
    <rect x="148" y="83" width="52" height="22" class="score-box-finals" />
        <text id="group_finals_score2" x="192" y="99" class="score">0</text>
</g>

<g>
    <g>
        <g>
            <line class="flow-solid" x1="200" y1="72" x2="457.597" y2="72"/>
            <g>
                <polygon points="454.823,75.896 470,71.832 454.823,67.762               "/>
            </g>
        </g>
    </g>
    <line class="flow-solid" x1="211.167" y1="259" x2="211.167" y2="72"/>
    <line class="flow-solid" x1="200" y1="258" x2="211.167" y2="258"/>
    <line class="flow-solid" x1="200" y1="165" x2="211.167" y2="165"/>
</g>


<!--



<g
   id="g3869">
    <g
   id="g3871">
        <g
   id="g3873">
            <line
   class="st16"
   x1="237.5"
   y1="73.656"
   x2="457.608"
   y2="73.656"
   id="line3875" />
            <g
   id="g3877">
                <polygon
   points="454.835,77.552 470.012,73.488 454.835,69.417     "
   id="polygon3879" />
            </g>
        </g>
    </g>
    <line
   class="st16"
   x1="198.178"
   y1="157.563"
   x2="237.5"
   y2="157.563"
   id="line3881" />
    <polyline
   class="st16"
   points="198.178,62.388 237.5,62.388 237.5,252.74 198.178,252.74  "
   id="polyline3883" />
</g>


<g
   id="g3885">
	<g
   id="g3887">
		<g
   id="g3889">
			<line
   class="st16"
   x1="217.462"
   y1="180.257"
   x2="218.462"
   y2="180.257"
   id="line3891" />
			<line
   class="st2"
   x1="220.437"
   y1="180.257"
   x2="243.147"
   y2="180.257"
   id="line3893" />
			<line
   class="st16"
   x1="244.134"
   y1="180.257"
   x2="245.134"
   y2="180.257"
   id="line3895" />
			<g
   id="g3897">
				<polygon
   points="242.36,184.154 257.538,180.089 242.36,176.019     "
   id="polygon3899" />
			</g>
		</g>
	</g>
	<g
   id="g3901">
		<g
   id="g3903">
			<line
   class="st16"
   x1="198.178"
   y1="180.257"
   x2="199.178"
   y2="180.257"
   id="line3905" />
			<line
   class="st1"
   x1="201.025"
   y1="180.257"
   x2="218.576"
   y2="180.257"
   id="line3907" />
			<line
   class="st16"
   x1="219.5"
   y1="180.257"
   x2="220.5"
   y2="180.257"
   id="line3909" />
		</g>
	</g>
	<g
   id="g3911">
		<g
   id="g3913">
			<line
   class="st16"
   x1="198.177"
   y1="85.081"
   x2="199.177"
   y2="85.081"
   id="line3915" />
			<line
   class="st1"
   x1="201.025"
   y1="85.081"
   x2="218.576"
   y2="85.081"
   id="line3917" />
			<polyline
   class="st16"
   points="219.5,85.081 220.5,85.081 220.5,86.081    "
   id="polyline3919" />
			<line
   class="st3"
   x1="220.5"
   y1="88.063"
   x2="220.5"
   y2="273.442"
   id="line3921" />
			<polyline
   class="st16"
   points="220.5,274.434 220.5,275.434 219.5,275.434    "
   id="polyline3923" />
			<line
   class="st1"
   x1="217.652"
   y1="275.434"
   x2="200.102"
   y2="275.434"
   id="line3925" />
			<line
   class="st16"
   x1="199.178"
   y1="275.434"
   x2="198.178"
   y2="275.434"
   id="line3927" />
		</g>
	</g>
</g>



<g
   id="g3955">
	<g
   id="g3957">
		<line
   class="st16"
   x1="431.851"
   y1="202.69"
   x2="432.851"
   y2="202.695"
   id="line3959" />
		<line
   class="st9"
   x1="434.833"
   y1="202.704"
   x2="489.345"
   y2="202.941"
   id="line3961" />
		<polyline
   class="st16"
   points="490.336,202.945 491.336,202.95 491.36,201.95   "
   id="polyline3963" />
		<line
   class="st15"
   x1="491.404"
   y1="200.177"
   x2="491.646"
   y2="190.424"
   id="line3965" />
		<line
   class="st16"
   x1="491.667"
   y1="189.537"
   x2="491.691"
   y2="188.538"
   id="line3967" />
		<g
   id="g3969">
			<polygon
   points="495.519,191.407 491.83,176.134 487.387,191.206    "
   id="polygon3971" />
		</g>
	</g>
</g>
<g
   id="g3973">
	<g
   id="g3975">
		<line
   class="st16"
   x1="237.233"
   y1="484.014"
   x2="457.341"
   y2="484.014"
   id="line3977" />
		<g
   id="g3979">
			<polygon
   points="454.567,487.91 469.744,483.846 454.567,479.775    "
   id="polygon3981" />
		</g>
	</g>
</g>
<line
   class="st16"
   x1="197.911"
   y1="443.091"
   x2="237.233"
   y2="443.091"
   id="line3983" />
<polyline
   class="st16"
   points="197.911,538.267 237.233,538.267 237.233,347.914 197.911,347.914 "
   id="polyline3985" />
<g
   id="g3987">
	<g
   id="g3989">
		<line
   class="st16"
   x1="221.222"
   y1="381.3"
   x2="222.222"
   y2="381.3"
   id="line3991" />
		<line
   class="st7"
   x1="224.33"
   y1="381.3"
   x2="244.359"
   y2="381.3"
   id="line3993" />
		<line
   class="st16"
   x1="245.413"
   y1="381.3"
   x2="246.413"
   y2="381.3"
   id="line3995" />
		<g
   id="g3997">
			<polygon
   points="243.639,385.196 258.816,381.132 243.639,377.062    "
   id="polygon3999" />
		</g>
	</g>
</g>
<g
   id="g4001">
	<g
   id="g4003">
		<line
   class="st16"
   x1="198.178"
   y1="465.783"
   x2="199.178"
   y2="465.783"
   id="line4005" />
		<line
   class="st1"
   x1="201.025"
   y1="465.783"
   x2="218.576"
   y2="465.783"
   id="line4007" />
		<line
   class="st16"
   x1="219.5"
   y1="465.783"
   x2="220.5"
   y2="465.783"
   id="line4009" />
	</g>
</g>
<g
   id="g4011">
	<g
   id="g4013">
		<line
   class="st16"
   x1="198.178"
   y1="370.607"
   x2="199.178"
   y2="370.607"
   id="line4015" />
		<line
   class="st1"
   x1="201.025"
   y1="370.607"
   x2="218.576"
   y2="370.607"
   id="line4017" />
		<polyline
   class="st16"
   points="219.5,370.607 220.5,370.607 220.5,371.607   "
   id="polyline4019" />
		<line
   class="st3"
   x1="220.5"
   y1="373.59"
   x2="220.5"
   y2="558.969"
   id="line4021" />
		<polyline
   class="st16"
   points="220.5,559.96 220.5,560.96 219.5,560.96   "
   id="polyline4023" />
		<line
   class="st1"
   x1="217.652"
   y1="560.96"
   x2="200.102"
   y2="560.96"
   id="line4025" />
		<line
   class="st16"
   x1="199.178"
   y1="560.96"
   x2="198.178"
   y2="560.96"
   id="line4027" />
	</g>
</g>
<g
   id="g4029">
	<g
   id="g4031">
		<line
   class="st16"
   x1="429.688"
   y1="404.725"
   x2="430.688"
   y2="404.725"
   id="line4033" />
		<line
   class="st10"
   x1="432.743"
   y1="404.725"
   x2="489.308"
   y2="404.725"
   id="line4035" />
		<polyline
   class="st16"
   points="490.336,404.725 491.336,404.725 491.336,405.725   "
   id="polyline4037" />
		<line
   class="st17"
   x1="491.336"
   y1="407.717"
   x2="491.336"
   y2="458.526"
   id="line4039" />
		<line
   class="st16"
   x1="491.336"
   y1="459.522"
   x2="491.336"
   y2="460.522"
   id="line4041" />
		<g
   id="g4043">
			<polygon
   points="487.439,457.749 491.504,472.926 495.574,457.749    "
   id="polygon4045" />
		</g>
	</g>
</g>
<g
   id="g4047">
	<g
   id="g4049">
		<polyline
   class="st16"
   points="638.043,96.427 698.5,96.427 698.5,258.684   "
   id="polyline4051" />
		<g
   id="g4053">
			<polygon
   points="694.604,255.91 698.668,271.087 702.738,255.91    "
   id="polygon4055" />
		</g>
	</g>
</g>
<g
   id="g4057">
	<g
   id="g4059">
		<polyline
   class="st16"
   points="638.043,507.986 698.5,507.986 698.5,375.73   "
   id="polyline4061" />
		<g
   id="g4063">
			<polygon
   points="702.396,378.504 698.332,363.327 694.262,378.504    "
   id="polygon4065" />
		</g>
	</g>
</g>




-->

</svg>